HIERARCHY
ROOT Hips
{
  OFFSET -276.494 97.6339 298.176
  CHANNELS 6 Xposition Yposition Zposition Zrotation Xrotation Yrotation
  JOINT ToSpine
  {
    OFFSET -2.69724 7.43032 -0.144315
    CHANNELS 3 Zrotation Xrotation Yrotation
    JOINT Spine
    {
      OFFSET -0.0310711 10.7595 1.96963
      CHANNELS 3 Zrotation Xrotation Yrotation
      JOINT Spine1
      {
        OFFSET 19.9056 3.91189 0.764692
        CHANNELS 3 Zrotation Xrotation Yrotation
        JOINT Neck
        {
          OFFSET 25.9749 7.03908 -0.130764
          CHANNELS 3 Zrotation Xrotation Yrotation
          JOINT Head
          {
            OFFSET 9.52751 0.295786 -0.907742
            CHANNELS 3 Zrotation Xrotation Yrotation
            End Site
            {
              OFFSET 16.4037 0.713936 2.7358
            }
          }
        }
        JOINT LeftShoulder
        {
          OFFSET 17.7449 4.33886 11.7777
          CHANNELS 3 Zrotation Xrotation Yrotation
          JOINT LeftArm
          {
            OFFSET 0.911315 1.27913 9.80584
            CHANNELS 3 Zrotation Xrotation Yrotation
            JOINT LeftForeArm
            {
              OFFSET 28.6126 1.18197 -3.53199
              CHANNELS 3 Zrotation Xrotation Yrotation
              JOINT LeftHand
              {
                OFFSET 27.5088 0.0218783 0.327423
                CHANNELS 3 Zrotation Xrotation Yrotation
                End Site
                {
                  OFFSET 18.6038 -0.000155887 0.382096
                }
              }
            }
          }
        }
        JOINT RightShoulder
        {
          OFFSET 17.1009 2.89543 -12.2328
          CHANNELS 3 Zrotation Xrotation Yrotation
          JOINT RightArm
          {
            OFFSET 1.4228 0.178766 -10.211
            CHANNELS 3 Zrotation Xrotation Yrotation
            JOINT RightForeArm
            {
              OFFSET 28.733 1.87905 2.64907
              CHANNELS 3 Zrotation Xrotation Yrotation
              JOINT RightHand
              {
                OFFSET 27.4588 0.290562 -0.101845
                CHANNELS 3 Zrotation Xrotation Yrotation
                End Site
                {
                  OFFSET 17.8396 -0.255518 -0.000602873
                }
              }
            }
          }
        }
      }
    }
  }
  JOINT LeftUpLeg
  {
    OFFSET -5.61296 -2.22332 -10.2353
    CHANNELS 3 Zrotation Xrotation Yrotation
    JOINT LeftLeg
    {
      OFFSET 2.56703 -44.7417 -7.93097
      CHANNELS 3 Zrotation Xrotation Yrotation
      JOINT LeftFoot
      {
        OFFSET 3.16933 -46.5642 -3.96578
        CHANNELS 3 Zrotation Xrotation Yrotation
        JOINT LeftToeBase
        {
          OFFSET 0.346054 -6.02161 12.8035
          CHANNELS 3 Zrotation Xrotation Yrotation
          End Site
          {
            OFFSET 0.134235 -1.35082 5.13018
          }
        }
      }
    }
  }
  JOINT RightUpLeg
  {
    OFFSET -5.7928 -1.72406 10.6446
    CHANNELS 3 Zrotation Xrotation Yrotation
    JOINT RightLeg
    {
      OFFSET -2.57161 -44.7178 -7.85259
      CHANNELS 3 Zrotation Xrotation Yrotation
      JOINT RightFoot
      {
        OFFSET -3.10148 -46.5936 -4.03391
        CHANNELS 3 Zrotation Xrotation Yrotation
        JOINT RightToeBase
        {
          OFFSET -0.0828122 -6.13587 12.8035
          CHANNELS 3 Zrotation Xrotation Yrotation
          End Site
          {
            OFFSET -0.131328 -1.35082 5.13018
          }
        }
      }
    }
  }
}
MOTION
Frames:	20
Frame Time:	0.0333333
74.0553 104.342 -66.0082 73.5787 50.9475 12.7185 -70.1915 0 88.8779 79.3926 71.3386 3.76604 8.31125 19.7033 3.6842 -150.111 19.5847 174.724 -150.817 56.6231 167.053 2.54754 -0.683628 -27.509 -39.7459 21.7951 -164.665 11.1194 24.6178 -22.4246 9.29815 -0.170601 -0.415913 0.205235 -0.318051 32.0779 -99.9686 -50.2404 70.5368 3.18304 -19.9167 13.913 2.14314 -0.0344111 -2.99436 -72.7345 -3.87591 100.413 3.08587 25.9055 -30.3212 7.07907 4.06342 -0.922061 -6.23153 -23.6401 8.78669 -44.9387 -0.945857 83.2535 2.17814 15.6447 4.11735 -4.4298 -5.92751 0.901056 0.991427 17.8924 -12.9117 
76.5756 103.612 -68.1906 73.6124 50.319 12.2221 -70.1915 0 88.8779 79.4214 71.4071 3.92227 8.54021 19.7112 3.65927 -151.447 19.1572 175.213 -149.893 55.9456 166.573 2.55009 -0.675787 -27.5244 -39.6583 22.5264 -163.465 12.6347 29.3209 -22.9019 10.3131 -0.584324 -4.64645 0.213507 -0.36114 31.8995 -97.5768 -50.7819 73.4288 3.71038 -20.0045 14.8404 3.3972 -0.0539884 -2.61156 -73.6604 -3.98156 100.504 3.62118 27.8322 -30.8395 7.38294 3.60674 -0.972851 -6.58498 -25.4921 9.37361 -43.6728 -1.22427 82.8491 2.15208 20.1045 2.89268 -4.14714 -4.43967 0.828413 -1.9643 23.7389 -9.69472 
79.2254 103.242 -70.3603 73.8439 49.648 12.2347 -70.1915 0 88.8779 80.0384 71.164 3.90796 8.89054 19.3246 4.06234 -153.116 18.8124 176.283 -149.143 55.283 165.454 2.60109 -0.665942 -28.1034 -40.9877 25.7854 -161.334 10.9214 33.5216 -21.5545 9.73959 -0.572762 -4.87962 0.193462 -0.25165 31.893 -94.8225 -50.751 76.9478 3.89865 -19.3676 15.5015 3.68947 -0.0583952 -2.56149 -75.1099 -3.83677 99.6262 4.39342 28.8713 -30.5399 6.71751 3.33921 -0.875922 -6.76703 -26.4722 9.46274 -42.5719 -0.462178 82.5666 1.57514 24.1947 1.83583 -3.82055 -0.0203667 0.633299 -2.13752 29.3927 -11.5625 
81.8738 103.182 -72.5453 74.6448 49.9498 12.6193 -70.1915 0 88.8779 83.1769 70.5883 1.54183 8.80308 18.455 4.97192 -153.225 18.461 176.798 -148.342 54.7516 165.489 2.5481 -1.16009 -28.4365 -47.9385 37.4649 -156.621 4.80411 46.0583 -16.8377 8.34495 -0.292594 -2.25907 0.236013 -0.485394 32.3359 -91.9164 -49.953 80.8299 3.63444 -19.6941 15.4021 4.88943 -0.0845113 -2.64312 -76.9151 -4.04867 94.7841 4.53673 30.5003 -26.8558 5.85668 3.33584 -0.747796 -6.85546 -26.9958 10.2203 -42.6974 0.36034 81.4511 1.47875 28.4827 3.16427 -4.34288 0.364262 0.684077 -1.15636 25.9327 -12.0112 
84.5049 103.17 -74.7548 74.455 49.1722 14.0071 -70.1915 0 88.8779 84.7175 70.1303 1.88748 7.93336 17.9247 5.69371 -152.422 18.2718 177.833 -148.012 54.4042 165.409 2.63563 -1.19496 -29.588 -64.3024 52.8236 -145.002 -15.1842 64.4094 5.27078 9.50207 -0.511217 -4.32623 0.206188 -0.326361 32.3639 -91.0558 -49.2965 82.861 3.12134 -20.8902 14.656 6.07843 -0.14972 -3.51362 -77.1541 -5.21344 83.0162 0.552112 34.1779 -13.2238 4.75828 3.46098 -0.580375 -6.86298 -27.03 10.1112 -42.7786 2.4154 81.7589 1.25851 31.518 2.41825 -4.39951 -1.25519 0.744324 -0.0134911 25.2341 -13.8124 
86.9438 103.234 -76.8747 73.8679 48.8621 15.3976 -70.1915 0 88.8779 86.2342 69.4797 1.86375 6.24428 17.3285 6.57648 -150.616 18.3535 178.635 -149.785 54.7267 165.949 2.72034 -1.07948 -30.3716 -74.9791 58.3751 -136.507 -32.3048 73.8537 26.8401 10.8727 -0.498575 -3.45473 0.212247 -0.35536 32.0129 -91.6573 -49.0871 83.7189 1.97489 -23.2942 12.7431 7.46823 -0.210434 -3.88716 -75.0138 -4.14866 80.6926 -2.4797 40.0044 -8.54799 2.61977 3.10896 -0.27643 -6.27899 -23.8945 8.75651 -43.274 3.48663 81.0952 1.35375 33.3071 2.62025 -4.94147 -2.19037 0.830914 0.752274 22.6986 -14.3118 
89.0479 103.149 -78.915 73.2622 48.4979 16.3721 -70.1915 0 88.8779 87.7483 69.0562 1.92104 4.64602 17.3533 6.76025 -147.922 18.3066 178.058 -149.838 54.5966 165.664 2.71941 -1.21047 -30.6541 -92.0742 63.6137 -121.928 -46.5701 80.2725 47.5745 7.47324 -0.146275 -0.561478 0.235155 -0.476562 31.168 -91.4855 -49.9912 84.7432 1.25806 -24.7664 11.584 7.84859 -0.254895 -4.4048 -70.5619 -2.34682 84.1668 -3.28249 48.2442 -8.31782 0.812411 3.59792 0.0213888 -5.13696 -18.2686 7.37832 -43.479 4.29088 81.0616 1.47795 35.3505 2.46155 -5.48232 -3.84407 0.925693 1.71168 20.4236 -15.3123 
91.2479 102.943 -80.8816 73.5014 48.4989 17.2891 -70.1915 0 88.8779 91.9787 68.802 0.0752168 3.18652 17.766 5.86298 -146.343 18.2451 177.032 -151.438 54.8842 166.082 2.5991 -1.59434 -30.0194 -112.014 65.9058 -103.49 -57.1691 82.1841 64.8057 3.24832 0.0724135 3.7362 0.26356 -0.637649 31.1011 -91.5211 -50.7549 85.1756 1.09498 -24.3627 11.4588 8.3816 -0.269321 -4.33887 -66.2183 -0.578602 85.3653 -4.44318 56.7212 -6.14833 0.809548 5.8772 0.168101 -5.82446 -19.8002 14.0903 -44.5767 5.03826 79.7641 1.71442 37.1183 2.70132 -5.6018 -6.20937 0.990066 1.94786 19.4858 -15.4291 
93.4662 102.722 -82.8285 74.3785 48.0936 18.0904 -70.1915 0 88.8779 94.505 69.0092 -0.173638 4.00197 18.344 5.72812 -146.767 18.4832 176.639 -151.152 55.1141 165.751 2.68226 -1.38331 -30.5888 -122.821 64.8567 -93.5093 -56.8828 82.4544 68.0132 1.39303 0.0927074 7.25184 0.217713 -0.375162 30.8722 -87.9204 -50.5746 89.1789 0.915337 -22.3333 12.2622 8.69406 -0.24035 -3.77404 -61.3854 1.57345 86.2513 -5.69482 64.4743 -0.269687 1.85657 7.65251 0.0866819 -6.36047 -23.724 14.4202 -46.3458 6.52076 78.715 1.97255 38.0611 2.77843 -6.08943 -8.02189 1.05695 1.82052 18.3477 -14.7471 
95.4568 102.428 -84.878 75.8776 47.2 17.5918 -70.1915 0 88.8779 98.37 69.4156 -2.21479 4.46708 19.2945 5.23526 -147.102 18.6661 176.401 -150.742 55.31 165.995 2.73039 -1.17043 -30.6979 -120.492 62.647 -93.3954 -52.0804 82.0098 61.8035 0.0310685 0.0334387 9.31184 0.0800174 0.374254 31.749 -82.9403 -49.2815 93.638 0.928204 -18.7914 13.7016 8.67982 -0.250444 -3.92335 -56.9588 2.69697 87.1266 -7.62855 70.5934 4.52914 2.45671 7.51244 -0.0320291 -6.56975 -25.2609 14.8874 -48.2847 7.45664 78.3263 2.20867 39.3226 3.69139 -6.50777 -9.28335 1.09768 2.5982 16.0359 -15.4252 
97.7796 102.428 -86.9044 77.2216 47.2307 16.0625 -70.1915 0 88.8779 97.9231 69.8611 -3.00769 6.02514 19.599 6.67941 -148.473 18.849 176.945 -150.556 55.4118 165.582 2.84245 -0.962774 -31.5781 -114.086 59.9239 -97.0424 -50.9555 81.5984 57.7225 0.0338106 0.0281587 7.59603 -0.00762631 0.833585 32.0775 -77.2323 -47.2008 99.5974 1.00037 -16.2122 14.9282 9.77866 -0.236183 -3.31627 -53.3854 1.99618 87.1367 -9.20497 73.452 6.83522 2.94684 7.59278 -0.118969 -6.69963 -26.2135 13.8261 -50.799 7.15376 78.1779 2.15347 40.2443 4.44239 -6.88418 -11.0612 1.13402 3.14646 14.5565 -15.9881 
100.039 102.486 -89.068 78.4597 46.6605 14.3636 -70.1915 0 88.8779 98.7159 70.3915 -4.19566 6.97399 20.3137 6.44072 -149.317 18.7471 176.276 -149.586 55.1482 164.941 2.79624 -0.994313 -31.097 -106.642 57.3041 -99.8461 -35.3355 78.3016 38.1234 3.13768 0.062253 3.4649 -0.0620284 1.0777 32.7078 -70.8665 -45.4422 105.329 2.06683 -12.7504 17.1996 9.31325 -0.196171 -2.94877 -50.2331 0.973662 87.4061 -9.9105 74.0433 6.57439 3.1349 6.70085 -0.193239 -6.74215 -26.5145 13.8831 -53.3594 6.63963 77.9917 1.98298 40.8138 5.79171 -7.43178 -12.4526 1.15752 3.3626 13.1576 -15.8874 
101.974 102.493 -91.1153 78.0239 44.7314 14.5534 -70.1915 0 88.8779 99.9209 71.3575 -3.81276 6.82189 21.3368 5.3916 -150.568 18.9075 175.882 -149.009 55.1801 164.103 2.76211 -1.06951 -30.8558 -101.574 54.8715 -100.442 -28.8207 74.706 28.5563 5.69539 -0.10864 -0.52226 -0.0522637 1.03267 32.6252 -64.3158 -43.9706 110.903 3.78097 -8.99743 20.086 8.46191 -0.149724 -2.55307 -45.5141 1.08375 87.9652 -9.26532 72.9897 5.36802 3.36396 6.52167 -0.24155 -7.14114 -29.2383 13.6866 -54.4219 7.35338 78.7038 1.84013 40.7212 7.604 -7.76477 -12.3211 1.16125 4.53743 9.83662 -17.1299 
104.11 102.596 -93.3097 78.6684 43.9019 13.6571 -70.1915 0 88.8779 102.777 71.7878 -6.42965 6.48645 21.8594 4.88157 -151.544 18.8884 175.784 -148.871 55.19 164.366 2.75045 -0.955923 -30.4626 -95.671 52.9642 -100.434 -24.8661 69.5036 21.2287 8.38677 -0.223221 -1.33051 -0.0226122 0.878808 32.5902 -59.8844 -42.8486 114.409 5.49095 -6.04752 23.7705 7.72633 -0.087942 -1.78535 -42.8969 0.686477 88.4023 -7.09403 69.1825 2.965 3.64833 6.01599 -0.311825 -7.17007 -29.6907 14.6551 -57.0144 6.97861 78.4075 1.64534 40.2365 9.22361 -8.16518 -13.2099 1.16723 4.57903 8.80866 -16.7876 
106.226 102.699 -95.4797 78.2691 43.3205 13.4873 -70.1915 0 88.8779 102.132 72.2934 -5.94035 6.53251 22.0962 4.8 -152.498 19.0474 175.772 -149.03 55.4813 164.975 2.81451 -0.684698 -30.6306 -93.7051 51.9991 -98.7205 -22.8946 65.6798 17.9953 11.2233 -0.447971 -2.79745 -0.0170749 0.859699 32.44 -62.0288 -43.5899 113.335 7.08202 -7.80279 28.2316 7.13999 -0.049685 -1.24174 -40.372 0.298931 88.7274 -4.81691 63.0768 1.1533 4.05206 6.04362 -0.380249 -7.327 -30.8035 14.6148 -59.1862 6.52519 78.0355 1.45835 39.0987 10.5478 -8.74064 -14.0769 1.1666 4.68439 7.62823 -16.5139 
108.295 102.994 -97.7091 77.8195 43.1396 13.1632 -70.1915 0 88.8779 101.412 72.6547 -5.82141 6.37487 22.1182 4.80182 -153.215 18.9533 175.823 -148.849 55.3858 165.21 2.8489 -0.369977 -30.3643 -91.4675 51.9477 -96.0625 -21.3703 61.0525 15.2997 10.9482 -0.466019 -3.09081 0.00208921 0.764187 32.3393 -63.1842 -43.6812 112.52 8.62123 -8.89884 33.1177 6.86682 -0.0352799 -1.01618 -39.1186 -0.25345 89.3795 -2.97335 54.242 0.0415319 3.8392 5.96021 -0.346783 -7.1015 -29.1742 14.5737 -61.8354 5.67202 77.5672 1.37863 37.1419 12.5104 -8.46151 -13.5518 1.16826 5.55891 4.94658 -17.4252 
110.495 103.398 -99.7898 76.7715 43.2101 13.3352 -70.1915 0 88.8779 98.8361 72.9278 -4.22236 6.04859 21.9907 4.76887 -153.177 18.8796 175.401 -148.301 55.2846 165.58 2.79533 -0.0822662 -29.2023 -93.6692 53.3805 -91.2163 -20.173 59.5886 14.6591 10.0951 -0.369687 -2.43239 0.0242352 0.619135 32.8122 -63.4785 -43.6159 112.058 10.1989 -9.78371 37.3656 7.33054 0.00933444 -0.2091 -38.7262 -0.571068 90.046 -1.92958 43.1738 -1.85094 3.02215 6.61852 -0.176897 -6.54579 -25.0398 15.5839 -64.5107 5.12183 77.3392 1.47665 34.1267 13.0488 -8.7161 -13.5305 1.16911 5.38746 4.68187 -16.8695 
112.638 103.793 -101.892 76.04 42.7203 13.1089 -70.1915 0 88.8779 96.2077 73.5075 -2.55427 6.14748 22.27 4.83605 -153.736 19.1006 175.499 -147.845 55.3613 164.823 2.86181 0.106596 -29.5701 -97.2931 53.6517 -86.1229 -19.1671 59.4208 14.616 7.83439 -0.246712 -1.8666 0.0820635 0.3126 32.9227 -63.0537 -43.1027 112.062 10.9078 -9.48578 41.0513 7.53797 0.0366636 0.238864 -39.8854 -0.637949 91.0622 -1.38605 30.4524 -3.94427 2.89269 7.99602 -0.0902966 -5.97349 -19.9861 16.3308 -67.3358 4.59525 77.4065 1.40835 30.9209 14.6415 -8.10271 -12.1192 1.16578 5.86043 2.51097 -17.0251 
114.77 103.801 -104.007 75.3863 42.0726 13.2669 -70.1915 0 88.8779 94.2815 73.6972 -1.12071 6.4273 22.4365 4.29462 -154.136 18.6159 175.227 -147.931 54.8685 164.947 2.88288 0.347122 -29.3493 -101.923 53.8764 -81.1172 -18.086 60.1391 14.9626 5.15179 -0.147327 -1.55282 0.0564042 0.424364 33.3917 -62.446 -42.3493 112.367 11.9145 -9.65611 44.0895 7.17716 0.020175 -0.0161444 -40.6871 -0.398658 93.5973 0.196194 20.2458 -10.311 2.96953 8.44641 -0.0843133 -5.73234 -16.6343 17.8392 -69.5492 4.54741 77.5636 1.27859 28.8484 15.3032 -7.80713 -12.0664 1.16092 5.86835 1.79004 -16.6786 
117.148 103.495 -106.188 75.7563 40.4149 12.9267 -70.1915 0 88.8779 93.5387 74.2306 -0.657277 7.10328 23.0354 3.90947 -154.376 18.3882 175.051 -147.506 54.5848 165.167 2.92784 0.288488 -29.9328 -106.069 53.3071 -77.017 -16.9601 60.508 15.154 -0.230769 0.00599856 -2.34315 -0.017033 0.794859 33.4371 -61.3008 -41.8469 113.257 12.6118 -9.81571 45.8494 6.80219 0.0322374 0.228369 -40.8922 1.17103 94.9305 -0.0804601 15.674 -11.9499 2.17156 6.70468 -0.0215965 -5.61721 -14.8186 18.4007 -71.847 5.39103 78.4718 0.303213 27.702 16.4794 -7.67145 -10.991 1.15353 6.60523 -1.96746 -16.6752 
